<?xml version="1.0" encoding="iso-8859-1"?>
<!-- Generator: Adobe Illustrator 19.0.0, SVG Export Plug-In . SVG Version: 6.00 Build 0)  -->
<svg version="1.1" id="Capa_1" xmlns="http://www.w3.org/2000/svg" xmlns:xlink="http://www.w3.org/1999/xlink" x="0px" y="0px"
	 viewBox="0 0 512 512" style="enable-background:new 0 0 512 512;" xml:space="preserve">
<g>
	<g>
		<g>
			<path d="M19.961,216.078C8.937,216.078,0,225.015,0,236.039S8.937,256,19.961,256H122.76c11.024,0,19.961-8.937,19.961-19.961
				s-8.937-19.961-19.961-19.961h-30.94V40.421h30.94c11.024,0,19.961-8.937,19.961-19.961S133.785,0.499,122.76,0.499H19.961
				C8.937,0.499,0,9.436,0,20.46s8.937,19.961,19.961,19.961h31.938v175.657H19.961z"/>
			<path d="M123.758,299.914c-11.024,0-19.961,8.937-19.961,19.961v39.922c0,17.611-14.327,31.938-31.938,31.938
				c-17.611,0-31.938-14.327-31.938-31.938v-39.922c0-11.024-8.937-19.961-19.961-19.961S0,308.851,0,319.875v39.922
				c0,39.624,32.236,71.86,71.86,71.86c11.469,0,22.309-2.715,31.938-7.513v15.498c0,17.611-14.327,31.938-31.938,31.938H19.961
				C8.937,471.579,0,480.516,0,491.54c0,11.024,8.937,19.961,19.961,19.961H71.86c39.624,0,71.86-32.236,71.86-71.86v-79.844
				v-39.922C143.719,308.851,134.783,299.914,123.758,299.914z"/>
			<path d="M491.041,299.914c-11.024,0-19.961,8.937-19.961,19.961v119.766c0,17.611-14.327,31.938-31.938,31.938
				c-17.611,0-31.938-14.327-31.938-31.938V319.875c0-11.024-8.937-19.961-19.961-19.961c-11.024,0-19.961,8.937-19.961,19.961
				v119.766c0,39.624,32.236,71.86,71.86,71.86c39.624,0,71.86-32.236,71.86-71.86V319.875
				C511.002,308.851,502.065,299.914,491.041,299.914z"/>
			<path d="M256.499,299.914c-39.624,0-71.86,32.236-71.86,71.86v67.867c0,39.624,32.236,71.86,71.86,71.86
				s71.86-32.236,71.86-71.86v-67.867C328.359,332.15,296.123,299.914,256.499,299.914z M288.437,439.641
				c0,17.611-14.327,31.938-31.938,31.938c-17.611,0-31.938-14.327-31.938-31.938v-67.867c0-17.611,14.327-31.938,31.938-31.938
				s31.938,14.327,31.938,31.938V439.641z"/>
			<path d="M375.868,252.521c6.728-8.389,16.258-16.532,28.496-26.178c8.658-6.824,10.145-19.375,3.322-28.033
				c-6.825-8.66-19.375-10.145-28.033-3.322c-7.116,5.609-13.513,10.859-19.26,16.106c-11.89-11.072-25.806-21.447-40.264-32.226
				c-35.207-26.248-71.613-53.389-71.613-88.233c0-30.034,18.45-50.214,45.91-50.214c17.778,0,30.292,6.004,38.253,18.356
				c6.298,9.768,7.608,20.198,7.724,21.223c0.684,10.492,9.37,18.661,19.894,18.661S379.507,90.49,380.19,80
				c0.116-1.024,1.426-11.455,7.724-21.223c7.961-12.352,20.475-18.356,38.253-18.356c27.46,0,45.91,20.18,45.91,50.214
				c0,17.115-8.419,33.482-26.491,51.505c-7.806,7.785-7.824,20.423-0.039,28.229c7.785,7.804,20.423,7.823,28.229,0.038
				C499.497,144.758,512,118.664,512,90.635c0-52.229-36.097-90.136-85.832-90.136c-33.35,0-53.693,13.893-65.871,28.544
				c-12.178-14.651-32.521-28.544-65.871-28.544c-49.735,0-85.832,37.907-85.832,90.136c0,54.877,46.578,89.602,87.675,120.239
				c19.255,14.356,37.445,27.916,48.458,41.648c3.789,4.723,9.516,7.471,15.572,7.471
				C366.351,259.992,372.079,257.244,375.868,252.521z"/>
		</g>
	</g>
</g>
<g>
</g>
<g>
</g>
<g>
</g>
<g>
</g>
<g>
</g>
<g>
</g>
<g>
</g>
<g>
</g>
<g>
</g>
<g>
</g>
<g>
</g>
<g>
</g>
<g>
</g>
<g>
</g>
<g>
</g>
</svg>
